{
	"patcher" : 	{
		"fileversion" : 1,
		"appversion" : 		{
			"major" : 8,
			"minor" : 5,
			"revision" : 4,
			"architecture" : "x64",
			"modernui" : 1
		}
,
		"classnamespace" : "dsp.gen",
		"rect" : [ 662.0, 324.0, 1176.0, 670.0 ],
		"bglocked" : 0,
		"openinpresentation" : 0,
		"default_fontsize" : 11.0,
		"default_fontface" : 0,
		"default_fontname" : "Lato",
		"gridonopen" : 1,
		"gridsize" : [ 15.0, 15.0 ],
		"gridsnaponopen" : 1,
		"objectsnaponopen" : 1,
		"statusbarvisible" : 2,
		"toolbarvisible" : 1,
		"lefttoolbarpinned" : 0,
		"toptoolbarpinned" : 0,
		"righttoolbarpinned" : 0,
		"bottomtoolbarpinned" : 0,
		"toolbars_unpinned_last_save" : 0,
		"tallnewobj" : 0,
		"boxanimatetime" : 200,
		"enablehscroll" : 1,
		"enablevscroll" : 1,
		"devicewidth" : 0.0,
		"description" : "",
		"digest" : "",
		"tags" : "",
		"style" : "Minimal",
		"subpatcher_template" : "minimal",
		"assistshowspatchername" : 0,
		"boxes" : [ 			{
				"box" : 				{
					"id" : "obj-6",
					"maxclass" : "newobj",
					"numinlets" : 1,
					"numoutlets" : 1,
					"outlettype" : [ "" ],
					"patching_rect" : [ 564.0, 559.0, 46.0, 22.0 ],
					"text" : "dcblock"
				}

			}
, 			{
				"box" : 				{
					"id" : "obj-3",
					"maxclass" : "newobj",
					"numinlets" : 1,
					"numoutlets" : 1,
					"outlettype" : [ "" ],
					"patching_rect" : [ 58.0, 561.0, 46.0, 22.0 ],
					"text" : "dcblock"
				}

			}
, 			{
				"box" : 				{
					"id" : "obj-8",
					"maxclass" : "newobj",
					"numinlets" : 1,
					"numoutlets" : 0,
					"patching_rect" : [ 569.0, 590.0, 34.0, 22.0 ],
					"text" : "out 2"
				}

			}
, 			{
				"box" : 				{
					"code" : "rectScatter(i1, i2, i3, i4, dt, rc, cuttoff){\r\n\tDelay d1(samplerate*5);\r\n\tDelay d2(samplerate*5);\r\n\tDelay d3(samplerate*5);\r\n\tDelay d4(samplerate*5);\r\n\tdt = mstosamps(dt);\r\n\tz = (i1+i2+i3+i4)*0.5;\r\n\tif (cuttoff > 0){\r\n\t\tz = onepole(z, cuttoff);\r\n\t}\r\n\to1 = d1.read(dt);\r\n\to2 = d2.read(dt);\r\n\to3 = d3.read(dt);\r\n\to4 = d4.read(dt);\r\n\t\t\r\n\td1.write(i1-z);\r\n\td2.write(i2-z);\r\n\td3.write(i3-z);\r\n\td4.write(i4-z);\r\n\t\t\r\n\treturn o1*rc, o2*rc, o3*rc, o4*rc;\r\n\t}\r\n\t\r\nwallBounce(i, dt, rc, cut){\r\n\tDelay d(samplerate*5);\r\n\tdt = mstosamps(dt);\r\n\to = d.read(dt);\r\n\td.write(i);\r\n\tif (cut > 0){\r\n\t\to = onepole(o,cut);\r\n\t}\r\n\treturn o*(rc);\r\n\t}\r\n\t\r\nonepole(i, f){\r\n\r\n\tHistory h1(0);\r\n\ta = clip(sin(abs(f)*TWOPI/samplerate),0,1);\r\n\th1 = mix(h1,i,a);\r\n\t\r\n\treturn h1;\r\n\r\n\t}\r\nParam predelay(0);\r\nParam mix (0.5, min=0, max=1);\r\nParam scatterRc(0.5, min = -1, max = 1);\r\nParam wallRc(0.5, min = -1, max = 1);\r\nParam wallCuttoff (0);\r\nParam scatterCuttoff(0);\r\nParam dta(71), dtb(57), dtc(87), dtd(24);\r\nParam dttop(100), dtbottom(100), dtleft(100), dtright(100);\r\nParam scatterSlide(0.01), wallSlide(0.01);\r\nParam flange(0); \r\nParam flangeSpeed1(0.85), flangeSpeed2(1), flangeSpeed3(1.3), flangeSpeed4(0.78);\r\n\r\nHistory b1, c3, d3, d1, b3, a3, b2, d2, c4, d4, c1, a1;\r\n\r\nDelay dl(2*samplerate), dr(2*samplerate);\r\nf1, f2, f3, f4 = 0;\r\ndtaf, dtbf, dtcf, dtdf = 0;\r\n\r\nif (flange > 0){\r\n\tf1 = (fastcos(phasor(flangeSpeed1)*TWOPI)+1)*0.5;\r\n\tf2 = (fastcos(phasor(flangeSpeed2)*TWOPI)+1)*0.5;\r\n\tf3 = (fastcos(phasor(flangeSpeed3)*TWOPI)+1)*0.5;\r\n\tf4 = (fastcos(phasor(flangeSpeed4)*TWOPI)+1)*0.5;\r\n\t\r\n\tdtaf = (f1*0.5+f2*0.5)*flange;\r\n\tdtbf = (f2*0.5+f4*0.5)*flange;\r\n\tdtcf = (f1*0.5+f3*0.5)*flange;\r\n\tdtdf = (f3*0.5+f4*0.5)*flange;\r\n\t}\r\n\r\n\r\ndl.write(in1);\r\ndr.write(in2);\r\n\r\nl = dl.read(predelay);\r\nr = dr.read(predelay); \r\n//w1, w2, w3, w4, w5, w6, w7, w8 = 0;\r\n\r\ndtas = slide(dta+dtaf, scatterSlide*samplerate,scatterSlide*samplerate);\r\ndtbs = slide(dtb+dtbf, scatterSlide*samplerate,scatterSlide*samplerate);\r\ndtcs = slide(dtc+dtcf, scatterSlide*samplerate,scatterSlide*samplerate);\r\ndtds = slide(dtc+dtdf, scatterSlide*samplerate,scatterSlide*samplerate);\r\n\r\ndttops = slide(dttop, wallSlide*samplerate,wallSlide*samplerate);\r\ndtbottoms = slide(dtbottom, wallSlide*samplerate,wallSlide*samplerate);\r\ndtlefts = slide(dttop, wallSlide*samplerate,wallSlide*samplerate);\r\ndtrights = slide(dttop, wallSlide*samplerate,wallSlide*samplerate);\r\n\r\nw1 = wallBounce(a3, dttops, wallRc, wallCuttoff); \r\nw2 = wallBounce(b3, dttops, wallRc, wallCuttoff); \r\nw3 = wallBounce(b2, dtrights, wallRc, wallCuttoff); \r\nw4 = wallBounce(d2, dtrights, wallRc, wallCuttoff); \r\nw5 = wallBounce(d4, dtbottoms, wallRc, wallCuttoff); \r\nw6 = wallBounce(c4, dtbottoms, wallRc, wallCuttoff); \r\nw7 = wallBounce(c1, dtlefts, wallRc, wallCuttoff); \r\nw8 = wallBounce(a1, dtlefts, wallRc, wallCuttoff); \r\n\r\n\r\na1, a2, a3, a4 = rectScatter(l+w8, b1, w1, c3, dtas, scatterRc, scatterCuttoff);\r\nb1, b2, b3, b4 = rectScatter(a2, w3, w2, r+d3, dtbs, scatterRc, scatterCuttoff);\r\nc1, c2, c3, c4 = rectScatter(w7, d1, a4, w6, dtcs, scatterRc, scatterCuttoff);\r\nd1, d2, d3, d4 = rectScatter( c2, w4, b4, w5, dtds, scatterRc, scatterCuttoff);\r\n\r\nslideMix = slide(mix,500,500);\r\n\r\nout1 = c1*slideMix*2 + l*(1-slideMix);\r\nout2 = d4*slideMix*2 + r*(1-slideMix);\r\n",
					"fontface" : 0,
					"fontname" : "<Monospaced>",
					"fontsize" : 11.0,
					"id" : "obj-5",
					"maxclass" : "codebox",
					"numinlets" : 2,
					"numoutlets" : 2,
					"outlettype" : [ "", "" ],
					"patching_rect" : [ 57.0, 75.0, 526.0, 464.0 ]
				}

			}
, 			{
				"box" : 				{
					"id" : "obj-1",
					"maxclass" : "newobj",
					"numinlets" : 0,
					"numoutlets" : 1,
					"outlettype" : [ "" ],
					"patching_rect" : [ 57.0, 33.0, 26.0, 22.0 ],
					"text" : "in 1"
				}

			}
, 			{
				"box" : 				{
					"id" : "obj-2",
					"maxclass" : "newobj",
					"numinlets" : 0,
					"numoutlets" : 1,
					"outlettype" : [ "" ],
					"patching_rect" : [ 564.0, 33.0, 26.0, 22.0 ],
					"text" : "in 2"
				}

			}
, 			{
				"box" : 				{
					"id" : "obj-4",
					"maxclass" : "newobj",
					"numinlets" : 1,
					"numoutlets" : 0,
					"patching_rect" : [ 57.0, 590.0, 34.0, 22.0 ],
					"text" : "out 1"
				}

			}
 ],
		"lines" : [ 			{
				"patchline" : 				{
					"destination" : [ "obj-5", 0 ],
					"source" : [ "obj-1", 0 ]
				}

			}
, 			{
				"patchline" : 				{
					"destination" : [ "obj-5", 1 ],
					"source" : [ "obj-2", 0 ]
				}

			}
, 			{
				"patchline" : 				{
					"destination" : [ "obj-4", 0 ],
					"source" : [ "obj-3", 0 ]
				}

			}
, 			{
				"patchline" : 				{
					"destination" : [ "obj-3", 0 ],
					"source" : [ "obj-5", 0 ]
				}

			}
, 			{
				"patchline" : 				{
					"destination" : [ "obj-6", 0 ],
					"source" : [ "obj-5", 1 ]
				}

			}
, 			{
				"patchline" : 				{
					"destination" : [ "obj-8", 0 ],
					"source" : [ "obj-6", 0 ]
				}

			}
 ],
		"autosave" : 0,
		"styles" : [ 			{
				"name" : "Minimal",
				"default" : 				{
					"accentcolor" : [ 0.0, 0.0, 0.0, 1.0 ],
					"bgcolor" : [ 0.999999, 0.999974, 0.999991, 1.0 ],
					"bgfillcolor" : 					{
						"angle" : 270.0,
						"autogradient" : 0.0,
						"color" : [ 0.65098, 0.666667, 0.662745, 1.0 ],
						"color1" : [ 0.65098, 0.666667, 0.662745, 1.0 ],
						"color2" : [ 0.290196, 0.309804, 0.301961, 1.0 ],
						"proportion" : 0.39,
						"type" : "color"
					}
,
					"color" : [ 0.0, 0.0, 0.0, 1.0 ],
					"editing_bgcolor" : [ 0.956862745098039, 0.956862745098039, 0.956862745098039, 1.0 ],
					"elementcolor" : [ 0.694117647058824, 0.694117647058824, 0.694117647058824, 1.0 ],
					"fontface" : [ 0 ],
					"fontname" : [ "Lato" ],
					"fontsize" : [ 11.0 ],
					"selectioncolor" : [ 0.0, 0.0, 0.0, 1.0 ],
					"textcolor_inverse" : [ 0.0, 0.0, 0.0, 1.0 ]
				}
,
				"parentstyle" : "",
				"multi" : 0
			}
 ]
	}

}
