{
	"patcher" : 	{
		"fileversion" : 1,
		"appversion" : 		{
			"major" : 8,
			"minor" : 3,
			"revision" : 2,
			"architecture" : "x64",
			"modernui" : 1
		}
,
		"classnamespace" : "box",
		"rect" : [ 129.0, 261.0, 657.0, 247.0 ],
		"bglocked" : 0,
		"openinpresentation" : 1,
		"default_fontsize" : 10.0,
		"default_fontface" : 0,
		"default_fontname" : "Futura Medium",
		"gridonopen" : 1,
		"gridsize" : [ 15.0, 15.0 ],
		"gridsnaponopen" : 1,
		"objectsnaponopen" : 1,
		"statusbarvisible" : 2,
		"toolbarvisible" : 1,
		"lefttoolbarpinned" : 0,
		"toptoolbarpinned" : 0,
		"righttoolbarpinned" : 0,
		"bottomtoolbarpinned" : 0,
		"toolbars_unpinned_last_save" : 15,
		"tallnewobj" : 0,
		"boxanimatetime" : 200,
		"enablehscroll" : 1,
		"enablevscroll" : 1,
		"devicewidth" : 0.0,
		"description" : "",
		"digest" : "",
		"tags" : "",
		"style" : "Minimal",
		"subpatcher_template" : "minimal",
		"assistshowspatchername" : 0,
		"boxes" : [ 			{
				"box" : 				{
					"id" : "obj-5",
					"maxclass" : "textbutton",
					"numinlets" : 1,
					"numoutlets" : 3,
					"outlettype" : [ "", "", "int" ],
					"parameter_enable" : 0,
					"patching_rect" : [ 226.0, 63.0, 100.0, 20.0 ],
					"presentation" : 1,
					"presentation_rect" : [ 226.0, 66.0, 100.0, 20.0 ],
					"text" : "cp.tinymesh~"
				}

			}
, 			{
				"box" : 				{
					"id" : "obj-4",
					"maxclass" : "textbutton",
					"numinlets" : 1,
					"numoutlets" : 3,
					"outlettype" : [ "", "", "int" ],
					"parameter_enable" : 0,
					"patching_rect" : [ 118.0, 63.0, 100.0, 20.0 ],
					"presentation" : 1,
					"presentation_rect" : [ 119.0, 47.0, 100.0, 20.0 ],
					"text" : "cp.multitap~"
				}

			}
, 			{
				"box" : 				{
					"fontname" : "Arial",
					"fontsize" : 12.0,
					"id" : "obj-2",
					"maxclass" : "newobj",
					"numinlets" : 1,
					"numoutlets" : 1,
					"outlettype" : [ "" ],
					"patching_rect" : [ 50.5, 272.327576000000022, 81.0, 22.0 ],
					"text" : "prepend help"
				}

			}
, 			{
				"box" : 				{
					"fontname" : "Arial",
					"fontsize" : 12.0,
					"id" : "obj-1",
					"maxclass" : "newobj",
					"numinlets" : 1,
					"numoutlets" : 1,
					"outlettype" : [ "" ],
					"patching_rect" : [ 50.5, 297.327576000000022, 53.0, 22.0 ],
					"text" : "pcontrol"
				}

			}
, 			{
				"box" : 				{
					"id" : "obj-8",
					"maxclass" : "textbutton",
					"numinlets" : 1,
					"numoutlets" : 3,
					"outlettype" : [ "", "", "int" ],
					"parameter_enable" : 0,
					"patching_rect" : [ 10.0, 63.0, 100.0, 20.0 ],
					"presentation" : 1,
					"presentation_rect" : [ 5.0, 47.0, 100.0, 20.0 ],
					"text" : "cp.wgMesh~",
					"varname" : "wgMesh~"
				}

			}
, 			{
				"box" : 				{
					"fontsize" : 24.0,
					"id" : "obj-3",
					"maxclass" : "comment",
					"numinlets" : 1,
					"numoutlets" : 0,
					"patching_rect" : [ 5.0, 4.0, 343.0, 36.0 ],
					"presentation" : 1,
					"presentation_rect" : [ 5.0, 4.0, 343.0, 36.0 ],
					"text" : "cp Delay Networks"
				}

			}
 ],
		"lines" : [ 			{
				"patchline" : 				{
					"destination" : [ "obj-1", 0 ],
					"source" : [ "obj-2", 0 ]
				}

			}
, 			{
				"patchline" : 				{
					"destination" : [ "obj-2", 0 ],
					"source" : [ "obj-4", 1 ]
				}

			}
, 			{
				"patchline" : 				{
					"destination" : [ "obj-2", 0 ],
					"source" : [ "obj-5", 1 ]
				}

			}
, 			{
				"patchline" : 				{
					"destination" : [ "obj-2", 0 ],
					"source" : [ "obj-8", 1 ]
				}

			}
 ],
		"dependency_cache" : [  ],
		"autosave" : 0,
		"styles" : [ 			{
				"name" : "Minimal",
				"default" : 				{
					"accentcolor" : [ 0.0, 0.0, 0.0, 1.0 ],
					"bgcolor" : [ 0.999999, 0.999974, 0.999991, 1.0 ],
					"bgfillcolor" : 					{
						"angle" : 270.0,
						"autogradient" : 0.0,
						"color" : [ 0.65098, 0.666667, 0.662745, 1.0 ],
						"color1" : [ 0.65098, 0.666667, 0.662745, 1.0 ],
						"color2" : [ 0.290196, 0.309804, 0.301961, 1.0 ],
						"proportion" : 0.39,
						"type" : "color"
					}
,
					"color" : [ 0.0, 0.0, 0.0, 1.0 ],
					"elementcolor" : [ 0.999999, 0.999974, 0.999991, 1.0 ],
					"fontface" : [ 0 ],
					"fontname" : [ "Futura Medium" ],
					"fontsize" : [ 10.0 ],
					"selectioncolor" : [ 0.0, 0.0, 0.0, 1.0 ],
					"textcolor_inverse" : [ 0.0, 0.0, 0.0, 1.0 ]
				}
,
				"parentstyle" : "",
				"multi" : 0
			}
 ],
		"editing_bgcolor" : [ 0.956862745098039, 0.956862745098039, 0.956862745098039, 1.0 ]
	}

}
